<svg width="566" height="113" viewBox="0 0 566 113" fill="none" xmlns="http://www.w3.org/2000/svg">
<path d="M0 24C0 10.7452 10.7452 0 24 0H89C102.255 0 113 10.7452 113 24V89C113 102.255 102.255 113 89 113H24C10.7452 113 0 102.255 0 89V24Z" fill="#4299E1"/>
<path fill-rule="evenodd" clip-rule="evenodd" d="M63.278 44.376L67.172 57.615C67.6288 59.1691 68.5764 60.5335 69.8732 61.5042C71.17 62.4749 72.7462 62.9997 74.366 63H83C83.7956 63 84.5587 62.6839 85.1213 62.1213C85.6839 61.5587 86 60.7956 86 60C86 59.2044 85.6839 58.4413 85.1213 57.8787C84.5587 57.3161 83.7956 57 83 57H74.366C74.0418 57.0002 73.7263 56.8954 73.4667 56.7012C73.2071 56.507 73.0174 56.234 72.926 55.923L67.706 38.169C66.47 33.96 60.56 33.828 59.132 37.974L46.79 73.89L41.921 61.716C41.3642 60.3231 40.4025 59.1293 39.1602 58.2886C37.9179 57.4479 36.452 56.999 34.952 57H29C28.2044 57 27.4413 57.3161 26.8787 57.8787C26.3161 58.4413 26 59.2044 26 60C26 60.7956 26.3161 61.5587 26.8787 62.1213C27.4413 62.6839 28.2044 63 29 63H34.952C35.2521 62.9995 35.5454 63.0889 35.7941 63.2569C36.0428 63.4248 36.2354 63.6635 36.347 63.942L42.716 79.866C44.264 83.739 49.796 83.601 51.149 79.656L63.278 44.376Z" fill="#EDF2F7"/>
<path d="M162.23 82.74C147.504 82.74 135.96 70.9 135.96 55.73C135.96 40.56 147.504 28.72 162.23 28.72C170.074 28.72 175.18 31.31 177.622 33.308V41.818C175.55 39.746 170.888 36.638 163.266 36.638C152.906 36.638 144.618 44.704 144.618 55.73C144.618 66.756 152.98 74.822 163.266 74.822C170.888 74.822 175.55 71.64 177.622 69.642V78.152C175.18 80.15 170.074 82.74 162.23 82.74Z" fill="#4299E1"/>
<path d="M206.585 42.78C214.725 42.78 222.125 47.738 222.125 59.504V82H213.541V60.762C213.541 52.548 208.879 50.106 204.069 50.106C197.927 50.106 194.005 54.028 194.005 61.354V82H185.495V26.5H194.005V49.736C196.447 45.296 200.665 42.78 206.585 42.78Z" fill="#4299E1"/>
<path d="M237.328 43.594L238.512 49.366C240.584 45.296 244.358 42.632 250.944 43.52L250.87 50.846C243.47 49.884 239.104 52.474 238.808 58.394L238.882 82H230.372V43.594H237.328Z" fill="#4299E1"/>
<path d="M273.878 82.74C262.038 82.74 253.305 74.304 253.305 62.76C253.305 51.29 262.038 42.78 273.878 42.78C285.792 42.78 294.523 51.29 294.523 62.76C294.523 74.304 285.792 82.74 273.878 82.74ZM273.878 75.118C280.982 75.118 286.31 69.79 286.31 62.76C286.31 55.656 280.982 50.402 273.878 50.402C266.848 50.402 261.594 55.656 261.594 62.76C261.594 69.79 266.848 75.118 273.878 75.118Z" fill="#4299E1"/>
<path d="M322.502 42.78C330.642 42.78 337.968 47.738 337.968 59.504V82H329.384V60.762C329.384 52.548 324.722 50.106 319.912 50.106C313.844 50.106 309.848 54.028 309.848 61.354V82H301.264V43.594H308.516L309.7 50.032C312.068 45.444 316.36 42.78 322.502 42.78Z" fill="#4299E1"/>
<path d="M350.506 38.784C347.694 38.784 345.474 36.564 345.474 33.826C345.474 31.014 347.694 28.794 350.506 28.794C353.244 28.794 355.464 31.014 355.464 33.826C355.464 36.564 353.244 38.784 350.506 38.784ZM346.214 43.594H354.724V82H346.214V43.594Z" fill="#4299E1"/>
<path d="M382.207 82.814C369.923 82.814 361.709 74.304 361.709 62.76C361.709 51.29 369.923 42.78 382.207 42.78C386.869 42.78 391.013 44.186 394.195 46.924V55.138C391.309 52.326 387.535 50.476 383.021 50.476C375.695 50.476 370.145 55.804 370.145 62.834C370.145 69.864 375.695 75.118 383.021 75.118C387.535 75.118 391.309 73.268 394.195 70.456V78.67C391.013 81.408 386.869 82.814 382.207 82.814Z" fill="#4299E1"/>
<path d="M435.53 29.46V37.304H411.48V51.586H431.016V59.208H411.48V74.156H435.53V82H402.822V29.46H435.53Z" fill="#2B6CB0"/>
<path d="M473.486 50.92L474.818 43.594H482.07V82H473.486V74.156C471.414 79.41 466.012 82.74 459.056 82.74C447.364 82.74 440.112 73.786 440.112 62.686C440.112 51.29 447.66 42.78 459.5 42.78C465.272 42.78 470.6 45.592 473.486 50.624V50.92ZM461.128 75.118C468.306 75.118 473.486 69.79 473.486 62.76C473.486 55.804 468.306 50.476 461.128 50.476C453.876 50.476 448.696 55.582 448.696 62.76C448.696 70.012 453.876 75.118 461.128 75.118Z" fill="#2B6CB0"/>
<path d="M505.469 82.74C496.589 82.74 488.819 78.892 488.375 70.086L496.663 69.79C497.107 73.786 500.807 76.08 505.765 76.08C509.983 76.08 512.869 74.378 512.869 71.492C512.869 63.796 490.077 68.162 490.077 54.176C490.077 47.146 496.589 42.854 504.729 42.854C513.535 42.854 519.751 47.96 520.047 54.62L511.981 54.842C511.537 51.586 508.873 49.292 504.655 49.292C501.103 49.292 498.291 50.92 498.291 53.584C498.291 61.132 521.379 56.544 521.379 71.122C521.379 78.596 514.793 82.74 505.469 82.74Z" fill="#2B6CB0"/>
<path d="M545.503 42.78C557.195 42.78 565.557 50.92 565.187 65.572H534.329C534.847 71.566 539.805 75.71 546.169 75.71C551.645 75.71 555.197 72.898 556.825 69.568L564.299 70.382C562.227 77.264 555.123 82.74 546.095 82.74C534.403 82.74 525.819 74.822 525.819 62.834C525.819 51.438 534.033 42.78 545.503 42.78ZM545.503 49.662C539.435 49.662 534.773 53.658 534.329 59.134H556.455C556.233 53.732 551.793 49.662 545.503 49.662Z" fill="#2B6CB0"/>
</svg>
